<!DOCTYPE svg PUBLIC "-//W3C//DTD SVG 20010904//EN" "http://www.w3.org/TR/2001/REC-SVG-20010904/DTD/svg10.dtd">
<svg version="1.0" xmlns="http://www.w3.org/2000/svg" width="767px" height="1200px" viewBox="0 0 7670 12000" preserveAspectRatio="xMidYMid meet">
<g id="layer101" fill="#040237" stroke="none">
<path d="M0 6000 l0 -6000 3835 0 3835 0 0 6000 0 6000 -3835 0 -3835 0 0 -6000z"/>
</g>
<g id="layer102" fill="#4156d0" stroke="none">
<path d="M2990 11995 c0 -3 24 -47 53 -98 185 -321 300 -656 363 -1052 25 -157 26 -643 1 -798 -80 -499 -237 -896 -510 -1286 -499 -715 -1318 -1215 -2217 -1355 -177 -28 -294 -37 -487 -39 l-193 -2 0 -611 0 -611 28 4 c15 2 194 23 397 48 368 45 460 56 920 115 474 61 568 73 1025 136 228 31 981 138 1110 158 263 40 366 57 380 61 8 3 96 18 195 35 514 87 892 175 964 226 l24 17 -27 14 c-63 33 -471 63 -860 63 -203 0 -226 2 -226 17 0 15 29 16 353 10 482 -9 697 -29 762 -71 94 -62 -77 -131 -566 -230 -174 -35 -446 -82 -634 -111 -55 -8 -170 -26 -255 -39 -154 -25 -872 -129 -1005 -146 -38 -5 -153 -21 -255 -35 -102 -14 -252 -34 -335 -45 -82 -11 -251 -33 -375 -49 -124 -16 -351 -46 -505 -65 -154 -19 -390 -49 -525 -66 -135 -17 -281 -36 -325 -41 -44 -5 -118 -13 -165 -19 -47 -5 -88 -10 -92 -10 -5 0 -8 -1377 -8 -3060 l0 -3060 3835 0 3835 0 0 6000 0 6000 -2340 0 c-1287 0 -2340 -2 -2340 -5z"/>
</g>
<g id="layer103" fill="#f9d154" stroke="none">
<path d="M2920 8793 c-138 -206 -382 -474 -589 -646 -466 -387 -1044 -647 -1651 -741 -177 -28 -294 -37 -487 -39 l-193 -2 0 -611 0 -611 28 4 c15 2 194 23 397 48 368 45 460 56 920 115 474 61 568 73 1025 136 236 32 1006 141 1085 154 33 5 119 19 190 30 72 11 158 25 191 31 l62 11 11 87 c43 340 6 684 -110 1018 -43 123 -155 350 -229 463 -148 225 -336 427 -543 584 -27 20 -52 36 -55 36 -4 0 -27 -30 -52 -67z"/>
<path d="M3790 6629 c-96 -19 -943 -145 -1205 -179 -38 -5 -153 -21 -255 -35 -102 -14 -252 -34 -335 -45 -82 -11 -251 -33 -375 -49 -124 -16 -351 -46 -505 -65 -154 -19 -390 -49 -525 -66 -135 -17 -281 -36 -325 -41 -44 -5 -118 -13 -165 -19 -47 -5 -88 -10 -92 -10 -5 0 -8 -164 -8 -363 l0 -364 77 -65 c276 -232 609 -401 948 -483 392 -94 758 -94 1150 0 325 78 641 236 910 452 109 88 293 273 367 369 148 193 285 446 357 663 33 99 81 280 81 306 0 7 -48 4 -100 -6z"/>
</g>
<g id="layer104" fill="#fdf8e2" stroke="none">
<path d="M4157 11993 c645 -2 1701 -2 2345 0 645 1 118 2 -1172 2 -1290 0 -1817 -1 -1173 -2z"/>
<path d="M7335 3534 c-598 -21 -1212 -201 -1725 -507 -919 -547 -1569 -1458 -1799 -2517 -11 -52 -27 -142 -36 -200 -9 -58 -21 -129 -26 -159 -5 -30 -9 -76 -9 -103 l0 -48 1965 0 1965 0 0 1765 0 1765 -57 0 c-32 0 -87 2 -123 4 -36 2 -105 2 -155 0z"/>
</g>


</svg>